<?xml version="1.0" encoding="UTF-8" standalone="no"?>
<!DOCTYPE svg PUBLIC "-//W3C//DTD SVG 1.1//EN" "http://www.w3.org/Graphics/SVG/1.1/DTD/svg11.dtd">
<!-- Created with Vectornator (http://vectornator.io/) -->
<svg height="100%" stroke-miterlimit="10" style="fill-rule:nonzero;clip-rule:evenodd;stroke-linecap:round;stroke-linejoin:round;" version="1.1" viewBox="0 0 311.85 212.625" width="100%" xml:space="preserve" xmlns="http://www.w3.org/2000/svg" xmlns:xlink="http://www.w3.org/1999/xlink">
<defs/>
<g id="Pomegranate">
<g opacity="1">
<path d="M54.4594 38.7416C54.4594 38.7416 74.9084 34.6166 100.133 64.2647C125.359 93.9128 145.808 146.107 145.808 146.107C145.808 146.107 103.77 140.44 78.5451 110.792C53.32 81.1439 54.4594 38.7416 54.4594 38.7416Z" fill="#514ad7" fill-rule="nonzero" opacity="1" stroke="none"/>
<path d="M242.911 41.2085C242.911 41.2085 239.258 92.1393 214.279 121.996C189.301 151.852 152.457 149.328 152.457 149.328C152.457 149.328 150.966 106.937 175.944 77.0804C200.922 47.224 242.911 41.2085 242.911 41.2085Z" fill="#514ad7" fill-rule="nonzero" opacity="1" stroke="none"/>
<path d="M279.18 95.5C279.18 95.5 271.586 136.479 239.732 158.856C207.879 181.232 168.631 169.933 168.631 169.933C168.631 169.933 173.358 135.198 205.211 112.822C237.064 90.4455 279.18 95.5 279.18 95.5Z" fill="#322dc3" fill-rule="nonzero" opacity="1" stroke="none"/>
<path d="M25.7872 92.5278C25.7872 92.5278 68.1098 89.6914 98.7443 113.709C129.379 137.727 136.724 179.503 136.724 179.503C136.724 179.503 94.4017 182.34 63.7673 158.322C33.1328 134.305 25.7872 92.5278 25.7872 92.5278Z" fill="#322dc3" fill-rule="nonzero" opacity="1" stroke="none"/>
<path d="M133.573 46.5117L147.293 17.0727L165.683 41.6297L133.573 46.5117Z" fill="#f15628" fill-rule="nonzero" opacity="1" stroke="none"/>
<path d="M128.872 55.6463L126.777 23.2347L154.698 35.9496L128.872 55.6463Z" fill="#f15628" fill-rule="nonzero" opacity="1" stroke="none"/>
<path d="M165.681 22.1097L166.546 69.0021L130.837 41.2085L165.681 22.1097Z" fill="#f15628" fill-rule="nonzero" opacity="1" stroke="none"/>
<path d="M77.3514 115.435C77.3514 76.7386 108.004 45.3692 145.815 45.3692C183.627 45.3692 214.279 76.7386 214.279 115.435C214.279 154.131 183.627 185.5 145.815 185.5C108.004 185.5 77.3514 154.131 77.3514 115.435Z" fill="#f15628" fill-rule="nonzero" opacity="1" stroke="none"/>
<path d="M145.815 50.9585L145.815 174.927C181.038 172.88 208.924 145.934 208.924 112.927C208.924 79.9203 181.038 53.0057 145.815 50.9585Z" fill="#fae59b" fill-rule="nonzero" opacity="1" stroke="none"/>
<path d="M183.231 109.348C183.231 104.346 187.286 100.29 192.288 100.29C197.291 100.29 201.346 104.346 201.346 109.348C201.346 114.35 197.291 118.406 192.288 118.406C187.286 118.406 183.231 114.35 183.231 109.348Z" fill="#7d170a" fill-rule="nonzero" opacity="1" stroke="none"/>
<path d="M174.173 82.254C174.173 77.2516 178.899 73.1964 184.728 73.1964C190.557 73.1964 195.283 77.2516 195.283 82.254C195.283 87.2563 190.557 91.3115 184.728 91.3115C178.899 91.3115 174.173 87.2563 174.173 82.254Z" fill="#7d170a" fill-rule="nonzero" opacity="1" stroke="none"/>
<path d="M151.155 66.5257C151.155 61.5234 155.483 57.4682 160.82 57.4682C166.158 57.4682 170.485 61.5234 170.485 66.5257C170.485 71.5281 166.158 75.5833 160.82 75.5833C155.483 75.5833 151.155 71.5281 151.155 66.5257Z" fill="#7d170a" fill-rule="nonzero" opacity="1" stroke="none"/>
<path d="M149.819 88.0639C149.819 82.7842 154.472 78.5042 160.213 78.5042C165.953 78.5042 170.607 82.7842 170.607 88.0639C170.607 93.3436 165.953 97.6236 160.213 97.6236C154.472 97.6236 149.819 93.3436 149.819 88.0639Z" fill="#7d170a" fill-rule="nonzero" opacity="1" stroke="none"/>
<path d="M156.058 111.143C156.058 105.149 160.754 100.29 166.546 100.29C172.339 100.29 177.034 105.149 177.034 111.143C177.034 117.137 172.339 121.996 166.546 121.996C160.754 121.996 156.058 117.137 156.058 111.143Z" fill="#7d170a" fill-rule="nonzero" opacity="1" stroke="none"/>
<path d="M177.034 138.963C177.034 133.742 181.119 129.51 186.159 129.51C191.198 129.51 195.283 133.742 195.283 138.963C195.283 144.183 191.198 148.416 186.159 148.416C181.119 148.416 177.034 144.183 177.034 138.963Z" fill="#7d170a" fill-rule="nonzero" opacity="1" stroke="none"/>
<path d="M151.155 134.741C151.155 129.739 155.755 125.684 161.428 125.684C167.101 125.684 171.7 129.739 171.7 134.741C171.7 139.743 167.101 143.799 161.428 143.799C155.755 143.799 151.155 139.743 151.155 134.741Z" fill="#7d170a" fill-rule="nonzero" opacity="1" stroke="none"/>
<path d="M151.155 159.174C151.155 153.232 155.755 148.416 161.428 148.416C167.101 148.416 171.7 153.232 171.7 159.174C171.7 165.116 167.101 169.933 161.428 169.933C155.755 169.933 151.155 165.116 151.155 159.174Z" fill="#7d170a" fill-rule="nonzero" opacity="1" stroke="none"/>
<path d="M161.428 62.0037C161.428 60.7549 162.503 59.7426 163.829 59.7426C165.155 59.7426 166.23 60.7549 166.23 62.0037C166.23 63.2524 165.155 64.2647 163.829 64.2647C162.503 64.2647 161.428 63.2524 161.428 62.0037Z" fill="#fffac4" fill-rule="nonzero" opacity="1" stroke="none"/>
<path d="M184.728 77.8443C184.728 76.5956 185.803 75.5833 187.129 75.5833C188.455 75.5833 189.53 76.5956 189.53 77.8443C189.53 79.093 188.455 80.1053 187.129 80.1053C185.803 80.1053 184.728 79.093 184.728 77.8443Z" fill="#fffac4" fill-rule="nonzero" opacity="1" stroke="none"/>
<path d="M159.027 84.515C159.027 83.2663 160.102 82.254 161.428 82.254C162.754 82.254 163.829 83.2663 163.829 84.515C163.829 85.7637 162.754 86.776 161.428 86.776C160.102 86.776 159.027 85.7637 159.027 84.515Z" fill="#fffac4" fill-rule="nonzero" opacity="1" stroke="none"/>
<path d="M166.23 107.087C166.23 105.838 167.305 104.826 168.631 104.826C169.958 104.826 171.033 105.838 171.033 107.087C171.033 108.336 169.958 109.348 168.631 109.348C167.305 109.348 166.23 108.336 166.23 107.087Z" fill="#fffac4" fill-rule="nonzero" opacity="1" stroke="none"/>
<path d="M192.881 106.621C192.881 105.372 193.956 104.36 195.283 104.36C196.609 104.36 197.684 105.372 197.684 106.621C197.684 107.87 196.609 108.882 195.283 108.882C193.956 108.882 192.881 107.87 192.881 106.621Z" fill="#fffac4" fill-rule="nonzero" opacity="1" stroke="none"/>
<path d="M186.159 134.741C186.159 133.492 187.234 132.48 188.56 132.48C189.886 132.48 190.961 133.492 190.961 134.741C190.961 135.99 189.886 137.002 188.56 137.002C187.234 137.002 186.159 135.99 186.159 134.741Z" fill="#fffac4" fill-rule="nonzero" opacity="1" stroke="none"/>
<path d="M160.881 129.51C160.881 128.261 161.956 127.249 163.282 127.249C164.608 127.249 165.683 128.261 165.683 129.51C165.683 130.759 164.608 131.771 163.282 131.771C161.956 131.771 160.881 130.759 160.881 129.51Z" fill="#fffac4" fill-rule="nonzero" opacity="1" stroke="none"/>
<path d="M160.881 156.595C160.881 155.346 161.956 154.334 163.282 154.334C164.608 154.334 165.683 155.346 165.683 156.595C165.683 157.843 164.608 158.856 163.282 158.856C161.956 158.856 160.881 157.843 160.881 156.595Z" fill="#fffac4" fill-rule="nonzero" opacity="1" stroke="none"/>
</g>
</g>
</svg>
